<mxfile host="app.diagrams.net" modified="2023-06-21T08:40:23.009Z" agent="Mozilla/5.0 (Macintosh; Intel Mac OS X 10_15_7) AppleWebKit/537.36 (KHTML, like Gecko) Chrome/114.0.0.0 Safari/537.36" version="21.3.6" etag="8PfT89TKeP9bEJtq5KAS" type="github">
  <diagram name="Page-1" id="tm7K3eCZEjZv1PtRPr1B">
    <mxGraphModel>
      <root>
        <mxCell id="0" />
        <mxCell id="1" parent="0" />
      </root>
    </mxGraphModel>
  </diagram>
</mxfile>
